<svg xmlns="http://www.w3.org/2000/svg" viewBox="0 0 492 298">
  <defs />
  <path d="M430,271c0,10.49-96.26,19-215,19S0,281.49,0,271s96.26-19,215-19,215,8.51,215,19" fill="#eaf1f6" />
  <path fill="#eff5f8" d="M9 198L161 198 161 55 9 55 9 198z" />
  <path fill="#c2d7e7" d="M9 73L161 73 161 55 9 55 9 73z" />
  <path
    d="M23.41 64.4a3.67 3.67 0 11-3.66-3.83 3.75 3.75 0 013.66 3.83M37.2 61.81a3.67 3.67 0 11-5.3-.12 3.75 3.75 0 015.3.12M52.15 61.81a3.67 3.67 0 11-5.3-.12 3.76 3.76 0 015.3.12"
    fill="#fffffe" />
  <path fill="#eff5f8" d="M64 174L234 174 234 22 64 22 64 174z" />
  <path fill="#c1d7e8" d="M64 39L234 39 234 22 64 22 64 39z" />
  <path d="M71.58,34.87c-.19-.17,1.66-2.4,4.12-5s4.6-4.52,4.79-4.34-1.67,2.4-4.13,5-4.6,4.52-4.78,4.34"
    fill="#fffffe" />
  <path d="M80.49,34.87c-.19.18-2.33-1.77-4.79-4.34s-4.31-4.8-4.12-5,2.32,1.76,4.78,4.34,4.31,4.8,4.13,5"
    fill="#fffffe" />
  <path fill="#eff5f8" d="M150 138L283 138 283 0 150 0 150 138z" />
  <path fill="#c1d7e8"
    d="M165 44L260 44 260 41 165 41 165 44zM165 53L260 53 260 51 165 51 165 53zM165 63L260 63 260 60 165 60 165 63zM165 33L198 33 198 26 165 26 165 33zM165 105L260 105 260 103 165 103 165 105zM165 115L260 115 260 112 165 112 165 115zM165 125L190 125 190 122 165 122 165 125zM165 95L198 95 198 88 165 88 165 95z" />
  <path fill="#c2d7e7" d="M150 15L283 15 283 0 150 0 150 15z" />
  <path
    d="M161.4 7.67a2.79 2.79 0 11-5.57 0 2.79 2.79 0 115.57 0M172.69 7.67a2.79 2.79 0 11-5.57 0 2.79 2.79 0 115.57 0M184 7.67a2.78 2.78 0 11-5.56 0 2.78 2.78 0 115.56 0"
    fill="#fffffe" />
  <g>
    <path
      d="M389.17,39.83a4.82,4.82,0,1,0,2.67,6.27A4.8,4.8,0,0,0,389.17,39.83Zm4.63-4.47a10.42,10.42,0,0,1,2.09,2l2.67-.49,1.75,4.13-2.19,1.59a11,11,0,0,1,0,2.93l2.23,1.55-1.67,4.17L396,50.86A11.23,11.23,0,0,1,394,53l.49,2.67-4.13,1.77-1.58-2.21a11,11,0,0,1-2.93,0l-1.54,2.23-4.15-1.67.43-2.69A10.42,10.42,0,0,1,378.49,51l-2.67.49-1.76-4.13,2.2-1.59a11,11,0,0,1,0-2.93L374,41.33l1.67-4.17,2.67.43a11.6,11.6,0,0,1,2.05-2.09l-.49-2.67L384,31.07l1.59,2.2a11,11,0,0,1,2.92,0L390.07,31l4.16,1.68-.43,2.68Z"
      fill="#c2d7e7" />
    <path
      d="M429.47,63.05A10.49,10.49,0,1,0,439,74.47,10.48,10.48,0,0,0,429.47,63.05Zm7-13.14a24.31,24.31,0,0,1,5.75,3l5.38-2.73L454,57.9l-3.68,4.79a24.32,24.32,0,0,1,1.93,6.22L458,70.78l-.93,9.94-6,.79a24.31,24.31,0,0,1-3,5.75l2.73,5.38L443.1,99l-4.79-3.68a23.91,23.91,0,0,1-6.22,1.92L430.22,103l-9.94-.93-.79-6a24.31,24.31,0,0,1-5.75-3l-5.38,2.73L402,88.1l3.68-4.79a24.3,24.3,0,0,1-1.92-6.22L398,75.22l.93-9.94,6-.79a24.31,24.31,0,0,1,3-5.75l-2.73-5.38L412.9,47l4.79,3.68a23.91,23.91,0,0,1,6.22-1.92L425.78,43l9.94.93.79,6Z"
      fill="#eff5f8" />
    <path
      d="M362.85,252.3H131.25a11.88,11.88,0,0,1-11.86-11.89V94.9A11.88,11.88,0,0,1,131.25,83h231.6a11.88,11.88,0,0,1,11.86,11.9V240.41a11.88,11.88,0,0,1-11.86,11.89"
      fill="#5691c0" />
    <path d="M370.84,254.59H123.2a14.51,14.51,0,0,1-14.49-14.53v-.28H385.33v.28a14.5,14.5,0,0,1-14.49,14.53"
      fill="#5691c0" />
    <path fill="#91b4d4" d="M126 232L367 232 367 89 126 89 126 232zM222 239L225 245 274 245 277 239 222 239" />
    <path fill="#faf9f6" d="M134 232L356 232 356 99 134 99 134 232z" />
    <path
      d="M143.75 105.83a1.87 1.87 0 11-1.87-1.87 1.87 1.87 0 011.87 1.87M151.34 105.83a1.86 1.86 0 11-1.86-1.87 1.87 1.87 0 011.86 1.87M158.93 105.83a1.86 1.86 0 11-1.86-1.87 1.87 1.87 0 011.86 1.87"
      fill="#4867a5" />
    <path d="M356.07,114c0,.12-49.65.22-110.89.22s-110.9-.1-110.9-.22,49.64-.21,110.9-.21,110.89.1,110.89.21"
      fill="#c2d7e7" />
    <path fill="#91b4d4" d="M119 240L375 240 375 240 119 240 119 240z" />
    <path fill="#c2d7e7"
      d="M152 182L201 182 201 178 152 178 152 182zM215 137L264 137 264 133 215 133 215 137zM335.78 145.74c0 .12-27 .22-60.33.22s-60.33-.1-60.33-.22 27-.21 60.33-.21 60.33.1 60.33.21M335.78 152.85c0 .12-27 .21-60.33.21s-60.33-.09-60.33-.21 27-.21 60.33-.21 60.33.09 60.33.21M335.78 160c0 .12-27 .22-60.33.22s-60.33-.1-60.33-.22 27-.21 60.33-.21 60.33.1 60.33.21M335.78 167.06c0 .12-27 .21-60.33.21s-60.33-.09-60.33-.21 27-.21 60.33-.21 60.33.09 60.33.21M335.78 174.16c0 .12-27 .22-60.33.22s-60.33-.1-60.33-.22 27-.21 60.33-.21 60.33.1 60.33.21M262.22 181.27c0 .12-10.54.21-23.55.21s-23.55-.09-23.55-.21 10.54-.21 23.55-.21 23.55.09 23.55.21M334.9 195.06c0 .12-17.76.21-39.65.21s-39.66-.09-39.66-.21 17.75-.21 39.66-.21 39.65.09 39.65.21M334.9 202.6c0 .12-17.76.21-39.65.21s-39.66-.09-39.66-.21 17.75-.21 39.66-.21 39.65.09 39.65.21M334.9 210.14c0 .12-17.76.22-39.65.22s-39.66-.1-39.66-.22 17.75-.21 39.66-.21 39.65.1 39.65.21M334.9 217.69c0 .11-17.76.21-39.65.21s-39.66-.1-39.66-.21 17.75-.22 39.66-.22 39.65.1 39.65.22M201.1 194.34c0 .11-10.59.21-23.64.21s-23.64-.1-23.64-.21 10.58-.22 23.64-.22 23.64.1 23.64.22M201.1 200.26c0 .12-10.59.21-23.64.21s-23.64-.09-23.64-.21 10.58-.21 23.64-.21 23.64.09 23.64.21M201.1 206.18c0 .12-10.59.22-23.64.22s-23.64-.1-23.64-.22 10.58-.21 23.64-.21 23.64.1 23.64.21M201.1 212.11c0 .11-10.59.21-23.64.21s-23.64-.1-23.64-.21 10.58-.22 23.64-.22 23.64.1 23.64.22M201.1 218c0 .12-10.59.21-23.64.21s-23.64-.09-23.64-.21 10.58-.21 23.64-.21 23.64.09 23.64.21" />
    <path fill="#c9d9e7" d="M152 170L201 170 201 123 152 123 152 170z" />
    <path fill="#6fa0c9"
      d="M156 166L170 142 181 157 187 149 197 166 156 166M185.38 137.14a3.5 3.5 0 11-3.5-3.51 3.5 3.5 0 013.5 3.51" />
    <path
      d="M197.33,166.27a.91.91,0,0,1,0-.2c0-.14,0-.32,0-.55,0-.5,0-1.21,0-2.12,0-1.87,0-4.58-.05-8,0-6.89-.06-16.71-.1-28.49l.2.2-41.09,0c-.06.05.43-.43.23-.22v5.34c0,1.76,0,3.52,0,5.25v10.16c0,6.61,0,12.86,0,18.6l-.21-.2,29.71.11,8.38.05,2.23,0h.57l.21,0h-.74l-2.18,0-8.34.06-29.84.1H156v-.21c0-5.74,0-12,0-18.6q0-4.95,0-10.16V126.91c-.2.2.28-.29.24-.24l41.09,0h.2v.2c0,11.84-.07,21.69-.1,28.61,0,3.42,0,6.11,0,8,0,.9,0,1.59,0,2.09,0,.22,0,.39,0,.52s0,.18,0,.18"
      fill="#6fa0c9" />
    <path fill="#c9d9e7" d="M215 225L250 225 250 191 215 191 215 225z" />
    <path d="M238.39,201.47a2.48,2.48,0,1,1-2.48-2.49,2.48,2.48,0,0,1,2.48,2.49" fill="#6fa0c9" />
    <path
      d="M246.84,222.08a.6.6,0,0,1,0-.13v-.39c0-.36,0-.86,0-1.5,0-1.33,0-3.24,0-5.68,0-4.87,0-11.82-.07-20.15l.14.14-29.08,0,.16-.16v14.69c0,4.68,0,9.1,0,13.16l-.14-.14,21,.07,5.93,0,1.57,0h0l-1.54,0-5.9,0-21.12.08h-.14v-.15c0-4.06,0-8.48,0-13.16V194.23c-.15.14.19-.21.16-.17l29.08,0H247v.15c0,8.37,0,15.35-.07,20.24,0,2.42,0,4.33,0,5.64,0,.64,0,1.13,0,1.48,0,.15,0,.28,0,.37a.45.45,0,0,1,0,.12"
      fill="#6fa0c9" />
    <g>
      <path
        d="M407.51,273.67l-69.45-.32A15.13,15.13,0,0,1,323,258.16l.73-174.1A15.14,15.14,0,0,1,338.93,69l69.45.32a15.12,15.12,0,0,1,15.06,15.19l-.73,174.1a15.13,15.13,0,0,1-15.2,15.06"
        fill="#5691c0" />
      <path
        d="M408.29,75.33l-13.47-.06a3.33,3.33,0,0,0-3.28,3.4l0,2.44a3.33,3.33,0,0,1-3.28,3.4L362,84.39A3.34,3.34,0,0,1,358.74,81V78.52a3.34,3.34,0,0,0-3.26-3.43l-4.73,0L339,75a10.59,10.59,0,0,0-10.64,10.55l-.72,169.93a10.6,10.6,0,0,0,10.55,10.64l69.31.32a10.6,10.6,0,0,0,10.64-10.55L418.83,86a10.59,10.59,0,0,0-10.54-10.64"
        fill="#fffffe" />
      <path fill="#c2d7e7"
        d="M339 195L407 195 407 191 339 191 339 195zM404.71 209.07c0 .16-14.64.3-32.7.3s-32.69-.14-32.69-.3 14.63-.3 32.69-.3 32.7.13 32.7.3M404.71 100c0 .17-14.64.3-32.7.3s-32.69-.13-32.69-.3 14.63-.3 32.69-.3 32.7.14 32.7.3M404.71 217.44c0 .17-14.64.3-32.7.3s-32.69-.13-32.69-.3 14.63-.3 32.69-.3 32.7.14 32.7.3M404.71 225.82c0 .16-14.64.3-32.7.3s-32.69-.14-32.69-.3 14.63-.31 32.69-.31 32.7.14 32.7.31M404.71 234.19c0 .16-14.64.3-32.7.3s-32.69-.14-32.69-.3 14.63-.3 32.69-.3 32.7.13 32.7.3M404.71 242.56c0 .17-14.64.3-32.7.3s-32.69-.13-32.69-.3 14.63-.3 32.69-.3 32.7.14 32.7.3M405.64 252.06c0 .16-14.64.3-32.69.3s-32.7-.14-32.7-.3 14.64-.3 32.7-.3 32.69.13 32.69.3" />
      <path fill="#c9d9e7" d="M339 176L408 176 408 109 339 109 339 176z" />
    </g>
    <g>
      <path
        d="M483.3,147.13H297.15a9.33,9.33,0,0,1-9.15-9.44V103.44A9.33,9.33,0,0,1,297.15,94H483.3a9.33,9.33,0,0,1,9.15,9.44v34.25a9.33,9.33,0,0,1-9.15,9.44"
        fill="#4968a3" />
      <path
        d="M293.27,146.21a9,9,0,0,1-1.36-.83,9.55,9.55,0,0,1-1.7-5.46V105.67a9.33,9.33,0,0,1,9.16-9.44H485.61a8.93,8.93,0,0,1,5.3,1.75l0,0a9.94,9.94,0,0,1,.76,1.35,8.84,8.84,0,0,0-3.93-.92H301.53a9.33,9.33,0,0,0-9.15,9.44v34.25a9.65,9.65,0,0,0,.89,4.06"
        fill="#adc2db" />
      <path
        d="M483.31,147.13H297.25a8.87,8.87,0,0,1-3.93-.92,9.65,9.65,0,0,1-.89-4.06V107.9a9.33,9.33,0,0,1,9.15-9.44H487.63a8.84,8.84,0,0,1,3.93.92,9.65,9.65,0,0,1,.89,4.06v34.25a9.6,9.6,0,0,1-1.22,4.71,9.13,9.13,0,0,1-7.92,4.73"
        fill="#1d5697" />
      <rect x="302" y="106" width="33" height="33" rx="4" ry="4" fill="#fffffe" />
      <path
        d="M330.61,139.83h-25a5,5,0,0,1-5-5v-25a5,5,0,0,1,5-5h25a5,5,0,0,1,5,5v25A5,5,0,0,1,330.61,139.83Zm-25-33a3,3,0,0,0-3,3v25a3,3,0,0,0,3,3h25a3,3,0,0,0,3-3v-25a3,3,0,0,0-3-3Z"
        fill="#285596" />
      <path
        d="M302.64 131.19l9.08-13.27 8.54 10 6.41-4.43 6.94 7.74v2.64a4 4 0 01-4 4h-23a4 4 0 01-4-4v-2.64zM325.32 117.92a2.77 2.77 0 112.76-2.76A2.77 2.77 0 01325.32 117.92z"
        fill="#b1cce1" />
      <rect x="462" y="110" width="24.1" height="24.1" rx="4" ry="4" fill="#b1cce1" />
      <path
        d="M481.94,135.42H465.79a5,5,0,0,1-5-5V114.27a5,5,0,0,1,5-5h16.15a5,5,0,0,1,5,5v16.15A5,5,0,0,1,481.94,135.42Zm-16.15-24.15a3,3,0,0,0-3,3v16.15a3,3,0,0,0,3,3h16.15a3,3,0,0,0,3-3V114.27a3,3,0,0,0-3-3Z"
        fill="#285596" />
      <path
        d="M427.64 115.48H348.82a1.83 1.83 0 01-1.55-2v-4a1.83 1.83 0 011.55-2h78.82a1.84 1.84 0 011.56 2v4a1.83 1.83 0 01-1.56 2M384.1 129.05H348.82a1.83 1.83 0 01-1.55-2v-4a1.83 1.83 0 011.55-2H384.1a1.83 1.83 0 011.55 2v4a1.84 1.84 0 01-1.55 2M418 129.05H390.89a1.84 1.84 0 01-1.55-2v-4a1.83 1.83 0 011.55-2H418a1.83 1.83 0 011.56 2v4a1.84 1.84 0 01-1.56 2"
        fill="#5691c0" />
      <path d="M443.12,137.6h-95a1,1,0,0,1-.84-1.1v-.83a1,1,0,0,1,.84-1.1h95a1,1,0,0,1,.84,1.1v.83a1,1,0,0,1-.84,1.1"
        fill="#91b4d4" />
    </g>
    <g>
      <path
        d="M389.78,209.13H207a9.25,9.25,0,0,1-9-9.44V165.44a9.25,9.25,0,0,1,9-9.44H389.78a9.25,9.25,0,0,1,9,9.44v34.25a9.25,9.25,0,0,1-9,9.44"
        fill="#4968a3" />
      <path
        d="M203.22,208.21a8.8,8.8,0,0,1-1.34-.83,9.68,9.68,0,0,1-1.67-5.46V167.67a9.25,9.25,0,0,1,9-9.44H392a8.63,8.63,0,0,1,5.19,1.75l0,.05a9.88,9.88,0,0,1,.75,1.35,8.55,8.55,0,0,0-3.86-.92H211.33a9.25,9.25,0,0,0-9,9.44v34.25a9.64,9.64,0,0,0,.88,4.06"
        fill="#adc2db" />
      <path
        d="M389.78,209.13H207.17a8.55,8.55,0,0,1-3.86-.92,9.64,9.64,0,0,1-.88-4.06V169.9a9.25,9.25,0,0,1,9-9.44H394a8.61,8.61,0,0,1,3.86.92,9.79,9.79,0,0,1,.87,4.06v34.25a9.81,9.81,0,0,1-1.2,4.71,9,9,0,0,1-7.78,4.73"
        fill="#1d5697" />
      <rect x="212" y="168" width="33" height="33" rx="4" ry="4" fill="#fffffe" />
      <path
        d="M240.61,201.83h-25a5,5,0,0,1-5-5v-25a5,5,0,0,1,5-5h25a5,5,0,0,1,5,5v25A5,5,0,0,1,240.61,201.83Zm-25-33a3,3,0,0,0-3,3v25a3,3,0,0,0,3,3h25a3,3,0,0,0,3-3v-25a3,3,0,0,0-3-3Z"
        fill="#285596" />
      <path
        d="M212.64 193.19l9.08-13.27 8.54 10 6.41-4.43 6.94 7.74v2.64a4 4 0 01-4 4h-23a4 4 0 01-4-4v-2.64zM235.32 179.92a2.77 2.77 0 112.76-2.76A2.77 2.77 0 01235.32 179.92z"
        fill="#b1cce1" />
      <path
        d="M323.26 177.48H258.54c-.7 0-1.27-.9-1.27-2v-4c0-1.11.57-2 1.27-2h64.72c.7 0 1.27.91 1.27 2v4c0 1.12-.57 2-1.27 2M363.55 177.48H329.06c-.38 0-.68-.9-.68-2v-4c0-1.11.3-2 .68-2h34.49c.37 0 .68.91.68 2v4c0 1.12-.31 2-.68 2M282.59 191.05H258.33c-.58 0-1.06-.91-1.06-2v-4c0-1.12.48-2 1.06-2h24.26c.58 0 1.06.9 1.06 2v4c0 1.11-.48 2-1.06 2M340.08 191.05H290.76c-1.57 0-2.83-.91-2.83-2v-4c0-1.12 1.26-2 2.83-2h49.32c1.56 0 2.83.9 2.83 2v4c0 1.11-1.27 2-2.83 2"
        fill="#5691c0" />
      <path
        d="M331.07,199.6H257.92c-.36,0-.65-.49-.65-1.1v-.83c0-.61.29-1.1.65-1.1h73.15c.35,0,.64.49.64,1.1v.83c0,.61-.29,1.1-.64,1.1"
        fill="#91b4d4" />
    </g>
  </g>
  <g>
    <path
      d="M74.78,97.66c-1.35,1.39-2.8,2.94-4.13,4.48s-2.68,3.11-3.93,4.72-2.45,3.27-3.59,4.94l-.83,1.27-.78,1.29c-.26.43-.5.86-.73,1.3l-.65,1.19A6.88,6.88,0,0,0,59.7,119a20.46,20.46,0,0,0,0,2.82,51.39,51.39,0,0,0,.77,6c.34,2,.78,4.08,1.26,6.12s1,4.1,1.53,6.1l-3,1.12a86.58,86.58,0,0,1-4.49-12.25,48.69,48.69,0,0,1-1.41-6.57,27,27,0,0,1-.26-3.57,11.69,11.69,0,0,1,.7-4.13c.18-.45.28-.63.41-.9l.36-.77c.24-.52.49-1,.76-1.51l.8-1.49.84-1.45a63.21,63.21,0,0,1,3.7-5.52c1.31-1.76,2.67-3.49,4.1-5.15S68.7,94.6,70.36,93l4.42,4.66"
      fill="#a25851" />
    <path d="M75.12,87.92c-4.33.2-8.45,7.47-8.45,7.47L71.79,106s8.37-5.29,8.47-11.7c.06-4.17-.87-6.53-5.14-6.33"
      fill="#1f4473" />
    <path d="M62.45,138.77l5.27,1.58-3.51,3.59s-3.8-1.18-4.33-3.79l2.57-1.38" fill="#a25851" />
    <path fill="#a25851" d="M71 144L70 148 64 144 68 140 71 144" />
    <path fill="#a3bcd7" d="M193 157L65 160 64 112 192 109 193 157" />
    <path fill="#b6cde0" d="M186 131L138 132 138 114 185 113 186 131M160 153L113 155 112 136 160 135 160 153" />
    <path d="M105,71.81c-.08.5.12,1,.44,1s.66-.29.74-.79-.12-1-.44-1-.66.29-.74.79" fill="#151f35" />
    <path d="M105.58,71l1.25-.11s-.77.82-1.25.11" fill="#151f35" />
    <path d="M105.33,72.38a13.86,13.86,0,0,0,1.25,3.53,2.15,2.15,0,0,1-1.83,0l.58-3.52" fill="#8b2a2e" />
    <path
      d="M106.2,68.61a.22.22,0,0,1-.13,0,2.44,2.44,0,0,0-2.18-.13.3.3,0,0,1-.4-.13.31.31,0,0,1,.13-.41,3.07,3.07,0,0,1,2.73.14.3.3,0,0,1-.15.57"
      fill="#151f35" />
    <path
      d="M89.18 75.94c.11 3.81-.27 10.69-3.24 12.64 0 0 .4 3.93 7.2 5.26 7.48 1.46 4.19-3 4.19-3C93.4 89 94 86 95.18 83.29l-6-7.35M109.56 98.21c.46 1.91 1 4 1.7 6s1.38 3.93 2.2 5.81a41.94 41.94 0 002.78 5.38 21.62 21.62 0 003.49 4.47 11.71 11.71 0 002 1.56 7.28 7.28 0 001.09.53l.33.14.28 0a4.06 4.06 0 001.88-.41 13.58 13.58 0 002.34-1.35 52.75 52.75 0 008.86-8.6l2.64 1.78c-.56 1-1.13 2-1.75 2.92s-1.24 1.87-1.93 2.78a33.7 33.7 0 01-4.68 5.16 16.93 16.93 0 01-3.09 2.21 9.32 9.32 0 01-4.34 1.24 7.65 7.65 0 01-1.33-.12 7.07 7.07 0 01-1.21-.33 14.29 14.29 0 01-1.87-.82 17.36 17.36 0 01-3.22-2.23c-3.84-3.38-6.19-7.55-8.12-11.72a57.9 57.9 0 01-2.5-6.39 63.92 63.92 0 01-1.85-6.64l6.25-1.37"
      fill="#a25851" />
    <path d="M136.25,112.06l1.83-3.4,5.1,1.36s-3.06,4.7-5.68,4.71l-1.25-2.67" fill="#a25851" />
    <path fill="#a25851"
      d="M142 107L146 110 143 110 138 108 142 107M73 272L79 272 81 258 75 257 73 272M24 241L28 245 40 237 35 232 24 241" />
    <path
      d="M29.93 244.9l-3.6-6.21a.5.5 0 00-.62-.23l-5.13 2.09a1 1 0 00-.43 1.45c1.29 2.14 2 3.11 3.6 5.84 1 1.68 2.23 4.24 3.58 6.56s3.62 1.14 3.26 0c-1.62-4.86-.78-6.28-.45-8.43a1.73 1.73 0 00-.21-1.12M79.53 271.67h-7a.52.52 0 00-.51.43l-.94 5.61a1 1 0 001 1.13c2.45 0 3.64-.19 6.72-.19 1.9 0 5.83.2 8.45.2S90 276.23 89 276c-4.87-1.06-6.77-2.53-8.38-3.93a1.6 1.6 0 00-1-.39"
      fill="#183049" />
    <path fill="#884341" d="M81 258L80 266 74 265 75 257 81 258M35 232L40 237 35 240 30 236 35 232" />
    <path
      d="M73.37,126.36l25.06,4.9c11.84-35.21,9-36.35,9-36.35a52.32,52.32,0,0,0-5.69-2.66l-.34-.13c-1.6-.59-1.94-.68-4.09-1.31-3.69-.88-7.13-1.6-11.38-2.22q-.41-.07-.81-.12c-.77-.09-1.53-.18-2.27-.25l-1.47-.12L79.77,88c-2.74-.14-4.7-.1-4.7-.1,1.44,22,.39,28.29-1.7,38.45"
      fill="#1f4473" />
    <path d="M102.37,105.63a21.57,21.57,0,0,0,.73,11c2.08-6.88,3.27-11.59,3.91-14.81-1.92-.25-4,.38-4.64,3.77"
      fill="#1d3859" />
    <path d="M107.22,94.8c4.19,2.75,6.85,8.88,7.56,12.4l-9.7,8s-5.29-11.92-3.55-15,4.11-6.47,5.69-5.42"
      fill="#1f4473" />
    <path
      d="M88.56,67.18c-.63,6.21-1,8.82,1.55,12.58,3.87,5.65,11.59,5.29,14-.55,2.21-5.26,2.87-14.53-2.72-18.15a8.26,8.26,0,0,0-12.88,6.12"
      fill="#a25851" />
    <path
      d="M88.65,54.5c-3.78,2.83-1.36,3.51-3,6.36-1.73,3.06-3.54-.43-7,2.94-2.23,2.18,1.57,4.49-1.19,8.33-2.15,3-4.49.4-3.58,6.52.62,4.17-1.91,3.65-3.62,6-2.44,3.38-.25,5.81,6,7.08s1.79,7.62,7.67,7.81c6.41.21,4.92-8.23,8.05-6.17s8.81.17,8.47-4.87c-.31-4.62-5.4-4.46-1.28-7.62,3.22-2.48,4.21-2.45,1.93-7.72-1.93-4.48,5.17-3.8,5-7.68-.23-7-5-4.9-6.55-8.49-1-2.33-6.16-6.14-11-2.51"
      fill="#151f35" />
    <path
      d="M100.51,70.41a5.71,5.71,0,0,0,1.11,3.22c1,1.32,2.08,1,2.36-.24a4.23,4.23,0,0,0-1.16-4c-1.2-.91-2.3-.28-2.31,1"
      fill="#a25851" />
    <path
      d="M91.81,130S79.6,171.26,73.64,195c-6.3,25.1-36.33,45.55-36.33,45.55l-6.4-6.44S51,217,57.08,193.62c12.37-47.53,6.42-57.6,16.29-67.26L91.81,130"
      fill="#d0e0eb" />
    <path fill="#4968a3" d="M38 241L30 233 32 231 42 239 38 241" />
    <path d="M86.08,138.76c-8,6.24-8.55,30-8.36,40.76,4.07-15,8.89-31.72,11.7-41.39-.76-.65-1.87-.51-3.34.63"
      fill="#a8c5dd" />
    <path
      d="M29.84,246c.38,1.08.84,1.78,1.25,1.91a.54.54,0,0,0,.51-.13.25.25,0,0,0,.1-.2C31.65,247.19,30.64,246.49,29.84,246Zm1.39,2.23a.62.62,0,0,1-.23,0c-.76-.23-1.3-1.64-1.56-2.46a.16.16,0,0,1,0-.16.16.16,0,0,1,.16,0c.23.12,2.26,1.19,2.34,2a.51.51,0,0,1-.2.46.89.89,0,0,1-.56.22Z"
      fill="#285596" />
    <path
      d="M98.05,131.26s1.56,50-1.93,68.78c-3.64,19.58-14.71,64.1-14.71,64.1l-9-1.17s5.7-45,8.12-64.43c2.63-21.2-.82-70.87-.82-70.87l18.35,3.59"
      fill="#d0e0eb" />
    <path fill="#4968a3" d="M83 264L70 263 71 260 85 260 83 264" />
    <path
      d="M29.91 245.72a3.13 3.13 0 002.25.12c.06-.05.11-.13 0-.31a.49.49 0 00-.32-.29A3.25 3.25 0 0029.91 245.72zm1.52.58a4.38 4.38 0 01-1.92-.45.13.13 0 01-.07-.13.14.14 0 01.07-.12c.07 0 1.59-.93 2.45-.65a.81.81 0 01.5.46.53.53 0 01-.1.65 1.45 1.45 0 01-.93.24zM80.39 272.34c1.38.23 2.41.17 2.79-.18a.56.56 0 00.19-.48.17.17 0 00-.09-.16C82.87 271.29 81.43 271.84 80.39 272.34zm1.47.43a10.94 10.94 0 01-2-.22.15.15 0 01-.12-.13.14.14 0 01.08-.15c.28-.15 2.81-1.44 3.57-1a.51.51 0 01.24.4.88.88 0 01-.29.73 2.37 2.37 0 01-1.52.38z"
      fill="#285596" />
    <path
      d="M81.48,270c-.9,0-1.26,1.5-1.37,2.14.78-.47,1.81-1.54,1.74-2,0,0,0-.14-.28-.16Zm-1.56,2.56a.11.11,0,0,1-.08,0,.13.13,0,0,1-.06-.14c0-.11.33-2.84,1.82-2.68.4,0,.52.25.55.41.11.72-1.4,2.08-2.17,2.43Z"
      fill="#285596" />
    <path
      d="M73.23,124.81l-1.5,2c-.11.16.06.38.35.43l26.29,5.15c.23,0,.43,0,.47-.17l.59-2.21c0-.16-.13-.33-.38-.38l-25.38-5a.45.45,0,0,0-.44.11"
      fill="#4968a3" />
    <path
      d="M76.18 128.33l-.68-.14c-.14 0-.23-.11-.21-.2l.8-2.86c0-.09.15-.13.29-.11l.68.14c.13 0 .23.11.2.2l-.8 2.86c0 .09-.15.13-.28.11M93.34 131.73l-.68-.14c-.13 0-.23-.12-.2-.2l.8-2.86c0-.09.15-.13.28-.11l.68.14c.14 0 .23.11.21.2l-.8 2.86c0 .08-.15.13-.29.11"
      fill="#d0e0eb" />
  </g>
  <g>
    <path
      d="M408.08,271.42c-11-7.74-13.47-22.11-13-35,.07-2.15-.17-4.43.85-6.32s3.39-3.18,5.3-2.27c1.59.75,2.28,2.61,3.17,4.15a12.51,12.51,0,0,0,5,4.83c1.36.71,3,1.15,4.38.4,1.85-1,2.06-3.59,2.05-5.74q0-6-.07-12a20,20,0,0,1,.64-6.37,6.66,6.66,0,0,1,4.14-4.5,4,4,0,0,1,5,2.71,19.77,19.77,0,0,1,.06,2.67,2.25,2.25,0,0,0,1.31,2.12,2.57,2.57,0,0,0,2.33-1,28.52,28.52,0,0,0,5.07-7.72,39.61,39.61,0,0,1,4.73-8c2-2.36,4.75-4.24,7.79-4.41s6.28,1.72,7.05,4.74-1,6.08-2.87,8.53a47.83,47.83,0,0,1-9.88,9.5,3.9,3.9,0,0,0-1.65,1.79c-.46,1.43.88,2.85,2.28,3.32,1.58.53,3.3.36,5,.56s3.45.93,4.08,2.52c.87,2.19-1,4.48-2.74,6a40.55,40.55,0,0,1-12,7,13.6,13.6,0,0,0-4.47,2.19c-1.26,1.11-2,3-1.26,4.55s2.71,2,4.35,1.68a28.24,28.24,0,0,0,4.67-1.79c2.91-1.11,6.69-.91,8.56,1.63a6.84,6.84,0,0,1,.71,6,15.54,15.54,0,0,1-3.22,5.3,40.87,40.87,0,0,1-17.44,12.37c-6.78,2.37-13.06,3-19.79.53"
      fill="#4867a5" />
    <path
      d="M451 197l-.21.2c-.15.15-.36.33-.62.57-.56.5-1.38 1.24-2.4 2.21a79.63 79.63 0 00-8.09 8.86c-1.58 2-3.22 4.25-4.93 6.7s-3.53 5.09-5.33 7.94a98.13 98.13 0 00-5.22 9.18c-.82 1.65-1.55 3.37-2.29 5.12l-2.25 5.33a201.18 201.18 0 00-7.55 20.68 96.93 96.93 0 00-3.52 17.63 70.69 70.69 0 00-.2 12.14c.11 1.43.22 2.54.31 3.29.05.36.08.64.1.86a1.27 1.27 0 010 .29l-.06-.29c0-.21-.08-.49-.13-.85-.13-.74-.26-1.85-.39-3.29a67.65 67.65 0 01.07-12.17 95.48 95.48 0 013.46-17.72A193.26 193.26 0 01419.31 243c.75-1.8 1.51-3.58 2.25-5.33s1.47-3.48 2.3-5.13a96.32 96.32 0 015.26-9.21c1.82-2.85 3.64-5.48 5.36-7.93s3.39-4.7 5-6.69a76.29 76.29 0 018.2-8.8c1-1 1.88-1.67 2.45-2.15l.66-.54L451 197M424 232a4.07 4.07 0 01-.2-.93c-.11-.6-.24-1.48-.38-2.57-.29-2.17-.59-5.18-.91-8.51s-.67-6.32-1-8.49c-.15-1.08-.29-1.95-.39-2.55A3.92 3.92 0 01421 208a5.26 5.26 0 01.25.91c.15.6.32 1.47.51 2.55.39 2.15.78 5.16 1.1 8.49s.59 6.25.8 8.52c.11 1 .19 1.88.26 2.58a4.52 4.52 0 01.06.95"
      fill="#1a282b" />
    <path
      d="M451 227a6.37 6.37 0 01-1.08.12c-.69.07-1.69.15-2.93.29-2.47.26-5.87.74-9.61 1.44s-7.08 1.47-9.48 2.1c-1.21.3-2.18.58-2.85.76A6.66 6.66 0 01424 232a5 5 0 011-.4c.66-.23 1.62-.54 2.82-.89 2.39-.69 5.74-1.51 9.48-2.21a94.16 94.16 0 019.66-1.33c1.24-.11 2.25-.15 2.95-.17a5.09 5.09 0 011.08 0M412 263s-.08-.11-.19-.33l-.48-1c-.41-.86-1-2.12-1.64-3.69-1.34-3.14-3.05-7.54-4.88-12.41s-3.49-9.28-4.76-12.44c-.63-1.54-1.14-2.8-1.52-3.74-.17-.41-.3-.75-.41-1A1.61 1.61 0 01398 228s.08.11.19.34l.48 1c.41.86 1 2.12 1.64 3.69 1.34 3.14 3.05 7.54 4.88 12.41s3.49 9.28 4.76 12.44c.63 1.54 1.14 2.8 1.52 3.74.17.41.3.75.41 1a1.61 1.61 0 01.12.37M448 251a1.21 1.21 0 01-.36.16l-1 .36-3.86 1.29c-3.25 1.09-7.73 2.65-12.68 4.38s-9.44 3.25-12.72 4.27c-1.64.52-3 .92-3.9 1.17l-1.06.29L412 263a1.21 1.21 0 01.36-.16l1-.36 3.86-1.29c3.25-1.09 7.73-2.65 12.68-4.38s9.44-3.25 12.72-4.27c1.64-.52 3-.92 3.89-1.17l1.07-.29L448 251"
      fill="#1a282b" />
  </g>
  <path
    d="M292.33,56.33,294,60.8a.35.35,0,0,1-.26.45l-2.3.73a.37.37,0,0,1-.47-.21L289.3,57.3a4.45,4.45,0,0,1-4.06-2.81A4.09,4.09,0,0,1,288,49.22a4.57,4.57,0,0,1,5.68,2.59A4,4,0,0,1,292.33,56.33ZM280.28,41.19a5.5,5.5,0,0,1,3.22-6.9,5.13,5.13,0,0,1,6.58,3.39l.92,2.8L281.2,44Zm16.65-2.77-2.1.74-.9-2.7a9.26,9.26,0,0,0-11.8-5.95,9.63,9.63,0,0,0-5.78,12.13l.9,2.7-2.11.74a3.28,3.28,0,0,0-2,4.12L279,67.78a3.18,3.18,0,0,0,4,2l21.79-7.66a3.31,3.31,0,0,0,2-4.17L301,40.43a3.15,3.15,0,0,0-4-2Z"
    fill="#b1cce1" />
</svg>